#!OML:ASF H:\ManfredETheater\Project 1\Capture day 1\Session 1\subject.ASF
:FULLY-SPECIFIED
:DEGREES
61
root 16.9681 14.4402 19.312 -187.663 -82.9362 -150.701
lowerback 57.6535 -1.05885 3.20659
upperback 14.419 -2.85029 -0.128015
thorax -5.1285 -2.41555 -0.271748
lowerneck 4.65405 -8.53709 -11.5495
upperneck -4.13851 -11.7992 8.43429
head -0.787047 -5.98123 4.47648
rclavicle -2.78299e-014 6.06293e-015
rhumerus -33.7005 22.5401 -97.1961
rradius 50.5367
rwrist 2.47207
rhand -4.86327 5.99531
rfingers 7.12502
rthumb 20.9248 -22.8961
lclavicle -2.78299e-014 6.06293e-015
lhumerus -16.584 21.4935 70.5518
lradius 99.9776
lwrist 13.2214
lhand -33.2232 -0.570504
lfingers 7.12502
lthumb -6.42972 29.3119
rfemur -77.7136 -23.8819 31.8334
rtibia 81.5672
rfoot -13.1736 -9.90264
rtoes -29.0132
lfemur -62.0637 13.7257 13.3726
ltibia 91.1201
lfoot 0.843405 -24.4728
ltoes -10.6546
62
root 16.8446 14.481 18.8908 -196.427 -83.6679 -141.709
lowerback 58.7925 -1.21768 3.21792
upperback 14.2455 -2.98113 -0.113662
thorax -5.36949 -2.47533 -0.18101
lowerneck 4.70811 -8.37782 -11.9779
upperneck -3.91638 -11.5844 9.1293
head -0.682259 -5.88269 4.7449
rclavicle 2.62396e-014 5.42931e-015
rhumerus -32.5434 22.4681 -96.6496
rradius 49.6898
rwrist 2.54481
rhand -4.10637 5.75212
rfingers 7.12502
rthumb 21.6518 -23.0572
lclavicle 2.62396e-014 5.42931e-015
lhumerus -16.882 22.2378 69.9266
lradius 100.796
lwrist 13.6082
lhand -33.1559 -0.481603
lfingers 7.12502
lthumb -6.36476 29.4028
rfemur -78.3369 -25.1768 34.0072
rtibia 83.4177
rfoot -12.9443 -6.53535
rtoes -30.3193
lfemur -65.7856 15.9933 10.2506
ltibia 93.5426
lfoot -0.231356 -24.5008
ltoes -13.8785
63
root 16.7164 14.5177 18.4767 -207.796 -84.2688 -130.164
lowerback 59.9982 -1.4575 3.32496
upperback 14.0274 -3.13433 -0.0909394
thorax -5.64963 -2.5407 -0.110345
lowerneck 4.73448 -8.21562 -12.356
upperneck -3.68828 -11.3634 9.83666
head -0.576505 -5.78126 5.01045
rclavicle 1.59028e-014 2.29783e-014
rhumerus -31.3341 21.9489 -96.0126
rradius 48.7783
rwrist 2.70858
rhand -3.76962 5.11204
rfingers 7.12502
rthumb 21.9752 -23.6597
lclavicle 1.59028e-014 2.29783e-014
lhumerus -17.1315 22.7724 69.3933
lradius 101.665
lwrist 14.0042
lhand -33.0569 -0.542761
lfingers 7.12502
lthumb -6.26918 29.3445
rfemur -79.1157 -26.6685 35.9848
rtibia 85.3962
rfoot -11.8061 -2.16251
rtoes -30.2202
lfemur -69.5513 17.726 6.73446
ltibia 95.6718
lfoot -1.53984 -24.4647
ltoes -16.2898
64
root 16.5838 14.5489 18.0684 -221.693 -84.6316 -116.109
lowerback 61.1809 -1.73777 3.52581
upperback 13.7954 -3.26379 -0.0472923
thorax -5.93009 -2.59231 -0.0661811
lowerneck 4.75259 -8.07334 -12.6366
upperneck -3.4781 -11.1654 10.5402
head -0.480169 -5.69195 5.26216
rclavicle 9.70069e-014 3.82164e-014
rhumerus -30.1082 20.9621 -95.2932
rradius 47.8491
rwrist 2.94266
rhand -3.85451 4.16603
rfingers 7.12502
rthumb 21.8937 -24.6153
lclavicle 9.70069e-014 3.82164e-014
lhumerus -17.2788 23.0504 68.9901
lradius 102.569
lwrist 14.3839
lhand -32.8995 -0.720288
lfingers 7.12502
lthumb -6.11715 29.1714
rfemur -80.0471 -28.2836 37.7119
rtibia 87.442
rfoot -9.64035 2.49966
rtoes -29.7191
lfemur -73.2627 18.9287 2.90175
ltibia 97.4359
lfoot -2.86805 -24.4705
ltoes -17.0091
65
root 16.4468 14.5712 17.6637 -236.787 -84.6384 -100.801
lowerback 62.186 -2.01205 3.81005
upperback 13.589 -3.32616 0.0206845
thorax -6.16567 -2.61132 -0.0621542
lowerneck 4.76974 -7.96829 -12.7864
upperneck -3.29141 -11.0124 11.2229
head -0.395704 -5.62573 5.48925
rclavicle -5.88403e-014 1.71452e-014
rhumerus -28.9154 19.5477 -94.5231
rradius 46.95
rwrist 3.199
rhand -4.40768 3.00505
rfingers 7.12502
rthumb 21.3624 -25.8374
lclavicle -5.88403e-014 1.71452e-014
lhumerus -17.2941 23.0493 68.7267
lradius 103.486
lwrist 14.6965
lhand -32.7102 -0.973626
lfingers 7.12502
lthumb -5.93441 28.9233
rfemur -81.1352 -29.9007 39.1686
rtibia 89.489
rfoot -6.66776 6.94903
rtoes -29.1921
lfemur -76.8573 19.6721 -1.11619
ltibia 98.7806
lfoot -4.1157 -24.4288
ltoes -16.0303
66
root 16.3062 14.5808 17.2613 -250.645 -84.2318 -86.609
lowerback 62.8719 -2.19667 4.18537
upperback 13.4524 -3.23071 0.143829
thorax -6.30803 -2.56089 -0.110246
lowerneck 4.80534 -7.94556 -12.7173
upperneck -3.15536 -10.9602 11.8333
head -0.334277 -5.61098 5.66198
rclavicle 5.56597e-014 3.72721e-014
rhumerus -27.7823 17.6823 -93.6867
rradius 46.1167
rwrist 3.4111
rhand -5.46953 1.69202
rfingers 7.12502
rthumb 20.3422 -27.2626
lclavicle 5.56597e-014 3.72721e-014
lhumerus -17.11 22.6946 68.6495
lradius 104.399
lwrist 14.9343
lhand -32.4552 -1.26875
lfingers 7.12502
lthumb -5.68826 28.6349
rfemur -82.3334 -31.3908 40.361
rtibia 91.4658
rfoot -3.36488 10.7896
rtoes -29.4079
lfemur -80.2884 20.033 -5.14123
ltibia 99.6805
lfoot -5.16385 -24.421
ltoes -14.0185
